<?xml version="1.0" encoding="utf-8"?><svg xmlns="http://www.w3.org/2000/svg" xmlns:xlink="http://www.w3.org/1999/xlink"><symbol viewBox="0 0 24 24" id="icon-activity" xmlns="http://www.w3.org/2000/svg"><path fill-rule="evenodd" d="M20.55 13.665h-2.017c-.497 0-1.066-.357-1.27-.797l-1.478-3.176c-.102-.22-.226-.206-.275.03L13.286 20.29c-.2.946-.524.947-.724 0L9.39 5.35c-.05-.236-.141-.238-.204-.005l-1.993 7.473c-.125.467-.629.846-1.126.847H3.45a.444.444 0 01-.45-.437c0-.242.202-.438.45-.438H5.7a.623.623 0 00.57-.42l2.28-7.992c.53-1.86 1.275-1.834 1.662.06l2.6 12.732c.048.237.127.237.176 0l1.72-8.378c.29-1.42 1.026-1.503 1.641-.183l1.765 3.783a.76.76 0 00.636.398h1.8c.248 0 .45.195.45.437a.444.444 0 01-.45.438z"/></symbol><symbol viewBox="0 0 65 65" id="icon-arrow" xmlns="http://www.w3.org/2000/svg"><path fill-rule="evenodd" d="M23.857 33.604l6.397 6.355L29.206 41 21 32.847 29.904 24l1.048 1.04-6.643 6.601H44v1.963z"/></symbol><symbol viewBox="0 0 24 24" id="icon-bell" xmlns="http://www.w3.org/2000/svg"><g fill="none" fill-rule="evenodd"><path fill="#8B9398" d="M18.85 17.8c.15.3.225.525.075.825a.788.788 0 01-.675.375H4.75c-.3 0-.525-.15-.6-.45a.681.681 0 010-.75S5.5 15.7 5.5 13v-3c0-3.3 2.7-6 6-6s6 2.7 6 6v3c0 2.7 1.35 4.8 1.35 4.8zm-9.9 2.7h5.1c-.525.9-1.5 1.5-2.55 1.5-1.05 0-2.025-.6-2.55-1.5z"/><rect width="8" height="8" fill="#E34257" rx="4" transform="translate(13 3)"/></g></symbol><symbol viewBox="0 0 48 70" id="icon-bird" xmlns="http://www.w3.org/2000/svg"><defs><path id="ada" d="M23.821 41.215a23.913 23.913 0 01-16.776-7.08C-2.331 24.713-2.348 9.446 6.994 0L48 41.215H23.821z"/><path id="adc" d="M23.821 41.215a23.913 23.913 0 01-16.776-7.08C-2.331 24.713-2.348 9.446 6.994 0L48 41.215H23.821z"/><path id="ade" d="M23.821 41.215a23.913 23.913 0 01-16.776-7.08C-2.331 24.713-2.348 9.446 6.994 0L48 41.215H23.821z"/><path id="adg" d="M23.821 41.215a23.913 23.913 0 01-16.776-7.08C-2.331 24.713-2.348 9.446 6.994 0L48 41.215H23.821z"/></defs><g fill="none" fill-rule="evenodd"><path fill="#272661" fill-rule="nonzero" d="M12.973 70H5.189l6.315-2.966V58.88h1.469zm8.432 0H14.27l5.79-2.966V58.88h1.345z"/><g fill-rule="nonzero" transform="translate(2.595)"><path fill="#272661" d="M.074 15.786l4.222-4.256 4.221 4.256-4.221 4.256z"/><path fill="#2AA7DF" d="M16.54 0c6.628 0 12 5.419 12 12.103v35.981c0 6.684-5.372 12.103-12 12.103-6.627 0-12-5.419-12-12.103V12.103C4.54 5.419 9.914 0 16.54 0z"/><ellipse cx="16.541" cy="12.757" fill="#FFF" rx="4.216" ry="4.252"/><ellipse cx="16.541" cy="12.757" fill="#000" rx="1.622" ry="1.636"/></g><path fill="#272661" fill-rule="nonzero" d="M23.821 62.804a23.913 23.913 0 01-16.776-7.08c-9.376-9.423-9.393-24.69-.051-34.135L48 62.804H23.821z"/><g transform="translate(0 21.589)"><mask id="adb" fill="#fff"><use xlink:href="#ada"/></mask><path fill="#67318E" fill-rule="nonzero" d="M40.865 34.186c-9.364 9.389-24.502 9.372-33.845-.051S-2.34 9.445 6.97 0l33.895 34.186z" mask="url(#adb)"/></g><g transform="translate(0 21.589)"><mask id="add" fill="#fff"><use xlink:href="#adc"/></mask><path fill="#2175BB" fill-rule="nonzero" d="M22.703 16.022L5.507 33.364C.76 28.575.76 20.811 5.507 16.022a12.086 12.086 0 0117.196 0z" mask="url(#add)"/></g><g transform="translate(0 21.589)"><mask id="adf" fill="#fff"><use xlink:href="#ade"/></mask><path fill="#2175BB" fill-rule="nonzero" d="M26.8 17.664l3.686 3.718-19.664 19.833-3.687-3.719z" mask="url(#adf)"/></g><g transform="translate(0 21.589)"><mask id="adh" fill="#fff"><use xlink:href="#adg"/></mask><path fill="#2175BB" fill-rule="nonzero" d="M35.232 22.243l3.687 3.719-19.664 19.832-3.687-3.718z" mask="url(#adh)"/></g></g></symbol><symbol viewBox="0 0 24 24" id="icon-calendar" xmlns="http://www.w3.org/2000/svg"><path fill-rule="evenodd" d="M19.875 5.25h-2.25V4.125C17.625 3.45 17.175 3 16.5 3h-1.125c-.675 0-1.125.45-1.125 1.125V5.25h-4.5V4.125C9.75 3.45 9.3 3 8.625 3H7.5c-.675 0-1.125.45-1.125 1.125V5.25h-2.25C3.45 5.25 3 5.7 3 6.375v13.5C3 20.55 3.45 21 4.125 21h15.75C20.55 21 21 20.55 21 19.875v-13.5c0-.675-.45-1.125-1.125-1.125zm-1.125 13.5H5.25v-7.875h13.5v7.875z"/></symbol><symbol viewBox="0 0 14 11" id="icon-check" xmlns="http://www.w3.org/2000/svg"><path d="M12.293.293l1.414 1.414L5 10.414.293 5.707l1.414-1.414L5 7.586z" fill-rule="nonzero"/></symbol><symbol viewBox="0 0 36 24" id="icon-child" xmlns="http://www.w3.org/2000/svg"><path id="aga" d="M17.5 10a.5.5 0 110-1 .5.5 0 010 1zm4.93 7.451c1.011.429 2.57.51 2.57 1.945 0 .874-.717 1.755-1.562 1.582-1.046-.213-1.55-.569-3.12-1.31a1.4 1.4 0 00-.692-.078c-.5.084-1.05.115-1.626.115-.516 0-1.01-.025-1.467-.09-.152-.022-.397-.102-.743.058-1.61.738-2.167 1.094-3.228 1.305-.846.169-1.562-.708-1.562-1.582 0-1.436 1.454-1.468 2.468-1.891.363-.227.338-.474.338-.65v-2.402c-.817-.166-2.614-.223-2.614-1.813 0-.808.651-1.105 1.445-1.022.63.066.906.434 1.997.092.299-.093.49-.425.291-.681-.535-.693-.81-1.571-.856-2.525-.018-.377-.13-.465-.202-.494a2.076 2.076 0 01-1.281-1.934c0-1.147.901-2.076 2.013-2.076.554 0 1.055.23 1.419.604.082.084.196.258.363.207.528-.273.987-.36 1.619-.36.588 0 1.007.071 1.508.31.141.062.199-.017.231-.055.37-.433.91-.706 1.513-.706 1.112 0 2.013.93 2.013 2.076 0 .846-.483 1.595-1.197 1.897-.139.059-.137.374-.137.531 0 .962-.314 1.855-.869 2.54-.217.268.163.607.298.658 1.073.409 1.37-.019 2.003-.084.794-.082 1.445.214 1.445 1.022 0 1.634-1.798 1.65-2.614 1.819v2.396c0 .171-.043.445.236.596zm-2.528-7.112c0-.855-.873-1.549-1.95-1.549-1.076 0-1.95.694-1.95 1.55 0 .855.874 1.548 1.95 1.548 1.077 0 1.95-.693 1.95-1.549zm-4.755-2.555a.7.7 0 00.696.705.7.7 0 00.696-.705.7.7 0 00-.696-.704.7.7 0 00-.696.704zm5.208 8.72v-1.122c0-1.317-1.054-2.385-2.355-2.385-1.3 0-2.355 1.068-2.355 2.385v1.121c0 1.318 1.054 1.909 2.355 1.909 1.3 0 2.355-.591 2.355-1.909zm-.539-8.015a.7.7 0 00.696-.705.7.7 0 00-.696-.704.7.7 0 00-.696.704.7.7 0 00.696.705z"/><use fill-rule="evenodd" xlink:href="#aga"/></symbol><symbol viewBox="0 0 16 16" id="icon-comment" xmlns="http://www.w3.org/2000/svg"><path fill="#8B9398" fill-rule="evenodd" d="M14 5c.552 0 1 .41 1 .917v6.416c0 .506-.448.917-1 .917h-2V16l-3-2.75H4l1.828-1.833H12c.552 0 1-.411 1-.917V5h1zM1 2h10c.552 0 1 .41 1 .917v6.416c0 .506-.448.917-1 .917H6L3 13v-2.75H1c-.552 0-1-.41-1-.917V2.917C0 2.41.448 2 1 2zm.09 1.1v6.05h3v1.363L5.579 9.15h5.331V3.1H1.091z"/></symbol><symbol viewBox="0 0 36 24" id="icon-culture" xmlns="http://www.w3.org/2000/svg"><path id="aia" d="M26.659 10.352c.22.842.341 1.748.341 2.696C27 17.44 24.437 21 21.274 21c-2.37 0-4.404-2-5.274-4.853.772-.378 1.472-.95 2.072-1.675.199.168.506.279.856.279.6 0 1.086-.688 1.086-1.081 0-.394-.486-.345-1.086-.345-.023 0-.044.003-.067.004a9.867 9.867 0 001.053-2.722c.438.028.89.045 1.36.045 1.932 0 3.649-.245 4.762-.626a.492.492 0 01.385.03.467.467 0 01.238.296zm-3.103 8.326c.037-.153.06-.31.06-.475 0-1.26-1.048-2.28-2.342-2.28-1.293 0-2.341 1.02-2.341 2.28 0 .164.023.322.06.475.01.042.042.076.084.09a.131.131 0 00.122-.023c.446-.365 1.205-.608 2.075-.608.87 0 1.63.243 2.075.608a.13.13 0 00.123.022.126.126 0 00.084-.09zm.065-3.927c.6 0 1.086-.32 1.086-.713 0-.394-.486-.713-1.086-.713-.6 0-1.087-.049-1.087.345 0 .393.487 1.08 1.087 1.08zM20 8.047C20 12.44 17.538 16 14.5 16S9 12.44 9 8.047c0-.947.117-1.853.327-2.695A.466.466 0 019.774 5c.052 0 .103.009.152.026 1.07.381 2.719.626 4.574.626s3.505-.245 4.574-.626a.452.452 0 01.37.029c.114.062.197.17.229.297.21.841.327 1.748.327 2.695zm-8.798.989c0 .394.468.713 1.044.713.577 0 1.044.048 1.044-.345 0-.394-.467-1.081-1.044-1.081-.576 0-1.044.319-1.044.713zm3.298 5.46c1.242 0 2.25-1.02 2.25-2.28 0-.164-.023-.322-.058-.475a.124.124 0 00-.081-.09.12.12 0 00-.118.024c-.428.365-1.157.607-1.993.607-.836 0-1.565-.242-1.993-.607a.122.122 0 00-.199.066 2.122 2.122 0 00-.057.475c0 1.26 1.007 2.28 2.249 2.28zm1.21-5.092c0 .393.467.345 1.044.345.576 0 1.044-.32 1.044-.713 0-.394-.468-.713-1.044-.713-.577 0-1.044.687-1.044 1.08z"/><use fill-rule="evenodd" xlink:href="#aia"/></symbol><symbol viewBox="0 0 10 12" id="icon-down" xmlns="http://www.w3.org/2000/svg"><path fill="#8B9398" fill-rule="evenodd" d="M5 10.828a.997.997 0 01-.707-.292L1.464 7.707A1 1 0 112.88 6.293L5 8.414l2.121-2.121a1 1 0 111.415 1.414l-2.829 2.829a.997.997 0 01-.707.292z"/></symbol><symbol viewBox="0 0 24 24" id="icon-drag" xmlns="http://www.w3.org/2000/svg"><path fill="#8B9398" fill-rule="evenodd" d="M6 18.5a1.5 1.5 0 11-3 0 1.5 1.5 0 013 0zm0-6a1.5 1.5 0 11-3 0 1.5 1.5 0 013 0zm0-6a1.5 1.5 0 11-3 0 1.5 1.5 0 013 0z"/></symbol><symbol viewBox="0 0 36 24" id="icon-eco" xmlns="http://www.w3.org/2000/svg"><path id="ala" d="M16.846 9.92a3.098 3.098 0 00-2.117-.19c.7 0 1.352.235 1.906.641.843.618-.187 1.967-1.35 1.719-1.057-.186-1.541-1.861-1.965-2.36.006-.004.248-.135.89-.75 1.222-1.17 2.537-.678 2.9.64.052.193-.104.373-.264.3zm6.16-.952c.688.576.947.698.954.701-.452.465-.978 2.035-2.106 2.208a1.703 1.703 0 01-1.595-.564c-.41.362-.661.758-.816 1.14a.657.657 0 01-.593.427.655.655 0 01-.651-.682c.097-3.705.364-4.467.619-5.63a5.465 5.465 0 01.966-2.112c-1.079.5-1.657 1.403-1.702 2.598-.01.275-.373.384-.525.157-.48-.715-.612-1.692-.156-2.495 1.031-1.818 3.634-1.12 4.23-1.716.113.908.467 2.347-.295 3.75-.443.878-1.248 1.38-1.852 1.401-.105.664-.195 1.557-.255 2.983a3.85 3.85 0 013-1.465 3.752 3.752 0 00-2.03.094c-.897.295.545-2.684 2.806-.795zm3.746 4.541c.314.221.33.701.046.962l-5.109 4.695a2.74 2.74 0 01-1.854.73h-6.41L12.07 22 8 17.79l3.652-3.719a3.852 3.852 0 012.811-1.191 3.93 3.93 0 011.836.448c.571.317 1.381.253 2.075.253h.934c.749 0 1.588.45 1.588 1.403 0 .899-.84 1.404-1.588 1.404h-2.492l.678.701h2.713l4.633-3.508c.37-.22 1.173-.59 1.912-.072z"/><use fill-rule="evenodd" xlink:href="#ala"/></symbol><symbol viewBox="0 0 36 24" id="icon-edu" xmlns="http://www.w3.org/2000/svg"><path id="ama" d="M18.498 14.281L25.995 12v3.769c0 .013.005.027.005.041 0 1.762-3.358 3.19-7.5 3.19-4.142 0-7.5-1.428-7.5-3.19V12l7.498 2.281zM6 9.761L18 5l12 4.762-4.84 1.785L18 13.82l-7.16-2.273-.583-.214 1.261-.423.12-.304L9.947 11v.437l-.302 5.252c-1.137.7-2.273 0-2.273 0-.268-1.92 1.553-5.848 1.553-5.848l.118-.358.806-.198-.134-.143-.94.082-.217.481L6 9.762z"/><use fill-rule="evenodd" xlink:href="#ama"/></symbol><symbol viewBox="0 0 18 18" id="icon-exit" xmlns="http://www.w3.org/2000/svg"><path fill="#8B9398" fill-rule="evenodd" d="M10.414 9l7.071 7.071a1 1 0 01-1.414 1.414L9 10.415l-7.071 7.07a1 1 0 01-1.414-1.414L7.585 9 .516 1.929A1 1 0 011.929.515L9 7.585l7.071-7.07a1 1 0 011.414 1.414L10.415 9z"/></symbol><symbol viewBox="0 0 36 24" id="icon-guard" xmlns="http://www.w3.org/2000/svg"><path id="aoa" d="M24.611 10.125h-1.167V8.542C23.444 5.486 21.002 3 18 3s-5.444 2.486-5.444 5.542v1.583h-1.167a.392.392 0 00-.389.396v9.896c0 .873.698 1.583 1.556 1.583h10.888c.858 0 1.556-.71 1.556-1.583V10.52a.392.392 0 00-.389-.396zm-5.447 8.269a.401.401 0 01-.096.308.386.386 0 01-.29.131h-1.556a.386.386 0 01-.29-.131.401.401 0 01-.096-.308l.245-2.246a1.575 1.575 0 01-.637-1.273c0-.873.698-1.583 1.556-1.583.858 0 1.556.71 1.556 1.583 0 .512-.239.978-.637 1.273l.245 2.246zm1.947-8.269H14.89V8.542c0-1.746 1.396-3.167 3.111-3.167 1.715 0 3.111 1.42 3.111 3.167v1.583z"/><use fill-rule="evenodd" xlink:href="#aoa"/></symbol><symbol viewBox="0 0 16 16" id="icon-like" xmlns="http://www.w3.org/2000/svg"><path fill="#8B9398" fill-rule="evenodd" d="M3.5 12.5v-5h-1v5h1zm-1.5 1a.5.5 0 01-.5-.5V7a.5.5 0 01.5-.5h1.815L6.035.818A.5.5 0 016.5.5h.834c.732 0 1.333.577 1.333 1.3v3.5h3.666c.673 0 1.308.303 1.72.821a2.05 2.05 0 01.367 1.846l-1.158 4c-.263.91-1.118 1.533-2.086 1.533H2zm2.5-6.006V12.5h6.676c.529 0 .988-.335 1.125-.811l1.158-4a1.05 1.05 0 00-.19-.947 1.192 1.192 0 00-.936-.442H8.167a.5.5 0 01-.5-.5v-4c0-.161-.145-.3-.333-.3h-.492L4.5 7.494z"/></symbol><symbol viewBox="0 0 24 24" id="icon-list" xmlns="http://www.w3.org/2000/svg"><path fill-rule="evenodd" d="M4.5 8a1.5 1.5 0 110-3 1.5 1.5 0 010 3zm5-3h10a1.5 1.5 0 010 3h-10a1.5 1.5 0 010-3zm0 6h10a1.5 1.5 0 010 3h-10a1.5 1.5 0 010-3zm0 6h10a1.5 1.5 0 010 3h-10a1.5 1.5 0 010-3zm-5-3a1.5 1.5 0 110-3 1.5 1.5 0 010 3zm0 6a1.5 1.5 0 110-3 1.5 1.5 0 010 3z"/></symbol><symbol viewBox="0 0 104 30" id="icon-logo" xmlns="http://www.w3.org/2000/svg"><g fill="none"><path fill="#272661" d="M58.218 18.919c.418 0 .815.054 1.192.163.377.108.687.24.929.395.242.154.457.31.643.464.187.155.321.285.402.392l.128.166-1.081 1.078a9.778 9.778 0 01-.092-.125 2.567 2.567 0 00-.26-.273 2.624 2.624 0 00-.441-.34 2.908 2.908 0 00-.627-.271 2.584 2.584 0 00-.793-.124c-.743 0-1.364.248-1.863.746-.5.497-.749 1.116-.749 1.856s.25 1.36.749 1.857c.499.497 1.12.746 1.863.746.288 0 .565-.04.829-.119a2.71 2.71 0 00.657-.282 4.24 4.24 0 00.46-.328c.133-.11.23-.207.289-.288l.088-.116 1.026 1.078c-.03.044-.075.102-.136.174a4.626 4.626 0 01-.404.381 4.282 4.282 0 01-.671.481 4.38 4.38 0 01-.937.378 4.213 4.213 0 01-1.201.172c-1.213 0-2.236-.405-3.07-1.213-.833-.809-1.25-1.782-1.25-2.92 0-1.139.417-2.111 1.25-2.918.834-.807 1.857-1.21 3.07-1.21zm5.564 4.13c0 .731.248 1.348.743 1.849a2.45 2.45 0 001.81.751 2.45 2.45 0 001.811-.751c.496-.501.743-1.118.743-1.849 0-.731-.247-1.348-.743-1.851a2.445 2.445 0 00-1.81-.754c-.712 0-1.315.251-1.81.754-.496.503-.744 1.12-.744 1.851zm-1.763-.003c0-1.138.417-2.11 1.25-2.917.834-.807 1.856-1.21 3.067-1.21 1.21 0 2.233.403 3.066 1.21.834.807 1.25 1.78 1.25 2.917 0 1.139-.416 2.112-1.25 2.92-.833.81-1.855 1.214-3.066 1.214-1.21 0-2.233-.405-3.067-1.213-.833-.809-1.25-1.782-1.25-2.92zm14.085-4.127c.418 0 .815.054 1.192.163.377.108.687.24.929.395.242.154.456.31.643.464.187.155.32.285.402.392l.128.166-1.082 1.078a9.78 9.78 0 01-.091-.125 2.567 2.567 0 00-.26-.273 2.624 2.624 0 00-.442-.34 2.908 2.908 0 00-.626-.271 2.584 2.584 0 00-.793-.124c-.743 0-1.364.248-1.863.746-.5.497-.749 1.116-.749 1.856s.25 1.36.749 1.857c.499.497 1.12.746 1.863.746.288 0 .565-.04.829-.119a2.71 2.71 0 00.657-.282 4.24 4.24 0 00.46-.328c.133-.11.23-.207.289-.288l.088-.116 1.026 1.078c-.03.044-.075.102-.136.174a4.626 4.626 0 01-.404.381 4.282 4.282 0 01-.671.481 4.37 4.37 0 01-.938.378 4.213 4.213 0 01-1.2.172c-1.213 0-2.236-.405-3.07-1.213-.833-.809-1.25-1.782-1.25-2.92 0-1.139.417-2.111 1.25-2.918.834-.807 1.857-1.21 3.07-1.21zm6.416 6.564h4.258v1.525h-5.966v-7.924h5.85v1.531H82.52v1.586h3.233v1.525H82.52v1.757zm4.818 0h.455c.03-.03.073-.076.13-.14.058-.065.159-.212.303-.443.144-.23.27-.483.38-.76.109-.276.208-.65.299-1.121.09-.472.136-.97.136-1.498v-2.437h5.506v6.4h.97v3.166H93.81v-1.642h-4.77v1.642h-1.702v-3.167zm3.405-3.962c0 .527-.043 1.024-.13 1.492-.087.468-.19.846-.31 1.133a6.44 6.44 0 01-.364.746 3.02 3.02 0 01-.305.453l-.138.138h3.349v-4.868h-2.102v.906zm13.17 5.487h-1.702v-5.034l-3.915 5.034h-1.48v-7.924h1.707v5.04l3.915-5.04h1.475v7.924z"/><path fill="#2AA7DF" d="M58.612 9.964l2.75-3.454h1.508v7.924h-1.702V9.151l-2.556 3.244-2.551-3.222v5.261h-1.708V6.51h1.536l2.723 3.454zM73.6 6.51v7.924h-1.703V6.51H73.6zm-5.452 7.924H64.91V6.51h1.708v2.603h1.53c.817 0 1.495.255 2.033.765.538.51.807 1.143.807 1.898 0 .755-.27 1.387-.807 1.896-.538.508-1.216.762-2.033.762zm-1.53-1.525h1.475c.34 0 .624-.11.851-.329.228-.219.341-.487.341-.804 0-.317-.113-.585-.34-.804a1.178 1.178 0 00-.852-.329h-1.475v2.266zM0 29.597l7.923.02.054-20.725-7.923-.02L0 29.597"/><path fill="#2175BB" d="M9.904 29.622l7.922.02.031-11.804-3.966 1.964-3.957-1.984z"/><path fill="#293C8F" d="M19.807 29.648l7.923.02.054-20.724-7.923-.02-.054 20.724"/><path fill="#67318E" d="M39.615 29.68l7.923.02.054-20.705-7.923-.021-.054 20.705"/><path fill="#272661" d="M29.71 29.674c4.376.01 7.933-3.515 7.944-7.875.011-4.36-3.527-7.905-7.902-7.917l-.041 15.792z"/><path fill="#2AA7DF" d="M.067 3.938a3.954 3.954 0 003.951 3.957 3.954 3.954 0 003.971-3.937A3.955 3.955 0 004.04 0 3.955 3.955 0 00.066 3.938z"/><path fill="#2175BB" d="M13.919 8.946a3.955 3.955 0 00-3.972 3.937 3.954 3.954 0 003.951 3.958 3.954 3.954 0 003.972-3.938 3.955 3.955 0 00-3.951-3.957"/><path fill="#293C8F" d="M23.845.05a3.955 3.955 0 00-3.971 3.939 3.954 3.954 0 003.95 3.957 3.954 3.954 0 003.973-3.937A3.955 3.955 0 0023.845.051"/><path fill="#272661" d="M33.736 5.01a3.955 3.955 0 00-3.972 3.939 3.955 3.955 0 003.952 3.957 3.955 3.955 0 003.971-3.937 3.955 3.955 0 00-3.95-3.958"/><path fill="#67318E" d="M43.632 7.997a3.954 3.954 0 003.971-3.937 3.955 3.955 0 00-3.95-3.958A3.955 3.955 0 0039.68 4.04a3.954 3.954 0 003.951 3.957"/></g></symbol><symbol viewBox="0 0 131 38" id="icon-logo-inverse" xmlns="http://www.w3.org/2000/svg"><path d="M73.332 23.964a5.36 5.36 0 011.502.206c.475.138.865.304 1.17.5.305.196.575.392.81.588.235.196.404.362.507.497l.16.21-1.362 1.365-.115-.157a3.244 3.244 0 00-.328-.347 3.308 3.308 0 00-.556-.43 3.653 3.653 0 00-.789-.343 3.239 3.239 0 00-.999-.158c-.936 0-1.718.315-2.347.945-.628.63-.943 1.414-.943 2.352s.315 1.722.943 2.352c.629.63 1.411.945 2.347.945a3.6 3.6 0 001.044-.15c.333-.1.61-.22.828-.358.22-.137.412-.276.58-.416.168-.14.289-.261.363-.364l.112-.147 1.292 1.365a2.37 2.37 0 01-.171.22 5.84 5.84 0 01-.51.483 5.395 5.395 0 01-.845.61c-.3.174-.694.334-1.18.479a5.307 5.307 0 01-1.513.217c-1.527 0-2.816-.512-3.866-1.537-1.05-1.024-1.575-2.257-1.575-3.699 0-1.442.525-2.674 1.575-3.696 1.05-1.022 2.339-1.532 3.866-1.532zm7.01 5.232c0 .926.311 1.706.935 2.34a3.077 3.077 0 002.28.953c.897 0 1.657-.317 2.281-.952.624-.635.936-1.415.936-2.341 0-.927-.312-1.708-.936-2.345a3.072 3.072 0 00-2.28-.956c-.897 0-1.657.319-2.28.956-.625.637-.937 1.418-.937 2.345zm-2.222-.004c0-1.442.525-2.674 1.575-3.696 1.05-1.022 2.338-1.532 3.863-1.532s2.812.51 3.862 1.532c1.05 1.022 1.575 2.254 1.575 3.696 0 1.442-.525 2.675-1.575 3.7-1.05 1.024-2.337 1.536-3.862 1.536s-2.813-.512-3.863-1.537c-1.05-1.024-1.575-2.257-1.575-3.699zm17.742-5.228c.526 0 1.026.068 1.501.206.475.138.865.304 1.17.5.305.196.575.392.81.588.236.196.405.362.507.497l.16.21-1.361 1.365-.116-.157a3.244 3.244 0 00-.328-.347 3.308 3.308 0 00-.555-.43 3.653 3.653 0 00-.79-.343 3.239 3.239 0 00-.998-.158c-.936 0-1.719.315-2.347.945-.629.63-.943 1.414-.943 2.352s.314 1.722.943 2.352c.628.63 1.41.945 2.347.945a3.6 3.6 0 001.044-.15c.333-.1.609-.22.828-.358.218-.137.412-.276.58-.416.167-.14.288-.261.363-.364l.111-.147 1.292 1.365c-.037.056-.094.13-.17.22a5.84 5.84 0 01-.51.483 5.395 5.395 0 01-.846.61c-.3.174-.694.334-1.18.479a5.3 5.3 0 01-1.512.217c-1.528 0-2.817-.512-3.867-1.537-1.05-1.024-1.575-2.257-1.575-3.699 0-1.442.525-2.674 1.575-3.696 1.05-1.022 2.34-1.532 3.867-1.532zm8.081 8.315h5.364v1.932h-7.515V24.173h7.369v1.94h-5.218v2.008h4.072v1.932h-4.072v2.226zm6.07 0h.573c.037-.037.092-.097.164-.179.072-.081.199-.268.38-.56.182-.291.342-.612.479-.962.137-.35.263-.824.377-1.42a10.1 10.1 0 00.171-1.898v-3.087h6.936v8.106h1.223v4.01h-2.152v-2.078h-6.007v2.079h-2.144v-4.011zm4.289-5.019c0 .668-.055 1.297-.165 1.89-.109.593-.24 1.071-.39 1.435a8.178 8.178 0 01-.458.945 3.827 3.827 0 01-.384.574l-.175.175h4.219v-6.167h-2.647v1.148zm16.589 6.95h-2.145v-6.376l-4.931 6.377h-1.865V24.173h2.151v6.384l4.932-6.384h1.858v10.038zM73.828 12.62l3.465-4.374h1.9v10.037h-2.145v-6.691l-3.22 4.108-3.213-4.08v6.663h-2.151V8.246h1.935l3.43 4.375zm18.88-4.374v10.037h-2.144V8.246h2.144zm-6.866 10.037h-4.08V8.246h2.152v3.297h1.928c1.03 0 1.883.323 2.56.97.678.645 1.016 1.447 1.016 2.403 0 .957-.338 1.757-1.016 2.401-.677.644-1.53.966-2.56.966zm-1.928-1.932h1.858c.429 0 .786-.138 1.072-.416.287-.278.43-.617.43-1.019 0-.4-.143-.74-.43-1.018-.286-.278-.643-.416-1.072-.416h-1.858v2.87zM0 37.49l9.98.025.068-26.251-9.98-.026L0 37.49m12.475.032l9.98.025.038-14.952-4.996 2.488-4.983-2.514zm12.475.032l9.98.026.067-26.251-9.98-.026-.068 26.251m24.951.04l9.98.026.067-26.227-9.98-.026-.067 26.227m-12.476-.007c5.512.014 9.991-4.452 10.005-9.976.015-5.523-4.442-10.012-9.953-10.027l-.052 20.003zM.084 4.988A4.995 4.995 0 005.06 10a4.995 4.995 0 005.003-4.988A4.996 4.996 0 005.087 0 4.996 4.996 0 00.084 4.988zm17.448 6.343a4.995 4.995 0 00-5.002 4.987 4.995 4.995 0 004.977 5.014 4.995 4.995 0 005.002-4.988 4.995 4.995 0 00-4.977-5.013M30.036.064a4.996 4.996 0 00-5.003 4.988 4.995 4.995 0 004.977 5.013 4.995 4.995 0 005.003-4.987A4.996 4.996 0 0030.036.064m12.459 6.283a4.996 4.996 0 00-5.003 4.988 4.995 4.995 0 004.977 5.013 4.995 4.995 0 005.002-4.987 4.996 4.996 0 00-4.976-5.014M54.96 10.13a4.995 4.995 0 005.002-4.987A4.995 4.995 0 0054.986.129a4.995 4.995 0 00-5.003 4.988 4.995 4.995 0 004.976 5.013" fill="#FFF"/></symbol><symbol viewBox="0 0 24 24" id="icon-mail" xmlns="http://www.w3.org/2000/svg"><path fill-rule="evenodd" d="M19.2 20H4.8c-.994 0-1.8-.784-1.8-1.75V7.75C3 6.784 3.806 6 4.8 6h14.4c.994 0 1.8.784 1.8 1.75v10.5c0 .966-.806 1.75-1.8 1.75zM4.842 19h14.316c.494 0 .895-.383.895-.856V8l-6.787 6.49a1.847 1.847 0 01-2.531 0L3.947 8v10.144c0 .473.401.856.895.856zm.185-12.143c-.195 0-.376.052-.527.143l6.806 6.753c.369.33.966.33 1.335 0L19.5 7a1.021 1.021 0 00-.527-.143H5.027z"/></symbol><symbol viewBox="0 0 36 24" id="icon-med" xmlns="http://www.w3.org/2000/svg"><path id="aua" d="M9.773 8.619C10.29 8.206 10.906 8 11.625 8H12v12h-.375c-.719 0-1.336-.206-1.852-.619C9.258 18.97 9 18.475 9 17.9v-7.8c0-.575.258-1.069.773-1.481zM21.53 5.937V7.5H23V20H13V7.5h1.47V5.937c0-.26.086-.481.258-.664A.826.826 0 0115.353 5h5.294c.245 0 .454.091.625.273a.933.933 0 01.257.664zm-5.882.313V7.5h4.706V6.25h-4.706zm5.882 8.437v-1.875a.315.315 0 00-.082-.224.278.278 0 00-.212-.088h-2.058v-2.188a.315.315 0 00-.083-.224.277.277 0 00-.212-.088h-1.764a.277.277 0 00-.212.088.314.314 0 00-.082.224V12.5h-2.06a.277.277 0 00-.21.088.314.314 0 00-.083.225v1.874c0 .092.027.166.082.225a.278.278 0 00.212.088h2.059v2.188c0 .09.027.165.082.224a.278.278 0 00.212.088h1.765c.085 0 .156-.03.21-.088a.315.315 0 00.084-.224V15h2.059c.085 0 .156-.03.21-.088a.315.315 0 00.083-.225zm4.698-6.068c.515.412.773.906.773 1.481v7.8c0 .575-.258 1.069-.773 1.481-.516.413-1.133.619-1.852.619H24V8h.375c.719 0 1.336.206 1.852.619z"/><use fill-rule="evenodd" xlink:href="#aua"/></symbol><symbol viewBox="0 0 24 24" id="icon-more" xmlns="http://www.w3.org/2000/svg"><path fill="#8B9398" fill-rule="evenodd" d="M18.5 18a1.5 1.5 0 110 3 1.5 1.5 0 010-3zm-6 0a1.5 1.5 0 110 3 1.5 1.5 0 010-3zm-6 0a1.5 1.5 0 110 3 1.5 1.5 0 010-3z"/></symbol><symbol viewBox="0 0 24 19" id="icon-more-arrow" xmlns="http://www.w3.org/2000/svg"><g fill="none" fill-rule="evenodd" stroke="#FFF" stroke-linecap="round" stroke-linejoin="round"><path stroke-width="2" d="M3 10.125h12.375"/><path stroke-width="1.563" d="M11.875 14.625l4.5-4.5-4.5-4.5"/></g></symbol><symbol viewBox="0 0 36 24" id="icon-pet" xmlns="http://www.w3.org/2000/svg"><path id="axa" d="M23.354 17.55c-1.274-1.174-2.847-3.128-4.097-4.408a.721.721 0 01-.41.135.72.72 0 01-.416-.133c-1.4-.98-2.082-1.75-2.675-2.517l-.634 3.12a1.453 1.453 0 01-.117.339l1.55 2.583c.052.086.091.18.116.279l.98 3.783c.135.539-.168 1.091-.679 1.234a.893.893 0 01-.247.035.967.967 0 01-.924-.75l-.941-3.633-1.137-1.895-.113 1.821a1.064 1.064 0 01-.063.298l-1.288 3.514a.96.96 0 01-.893.645.917.917 0 01-.345-.068c-.493-.2-.738-.786-.548-1.305l1.237-3.37.194-3.128a1.484 1.484 0 01-.258-1.167l.618-3.039c-.555.473-1.195 1.146-1.926 2.107a.725.725 0 01-1.057.122.822.822 0 01-.116-1.114c1.702-2.237 3.245-3.443 4.711-3.686.03-.006.059-.01.089-.014.028-.004.056-.01.084-.013.017-.002.033 0 .05 0 .023-.002.047-.006.07-.007h.005s.237.002.44.043c.214.042.4.15.4.15a2.1 2.1 0 01.496.364.755.755 0 01.117.11c.394.45.691.845.978 1.226.641.852 1.195 1.588 2.657 2.612.32.225.421.661.254 1.014 1.356 1.388 2.935 3.26 4.166 4.388l-.308.324h1.213l1.686 1.116v1.322l-.003.03v1.565c0 .23-.162.418-.362.418-.2 0-.362-.187-.362-.418v-1.428h-2.252l.608 1.22c.1.2.04.455-.133.57a.324.324 0 01-.18.056.356.356 0 01-.314-.21l-.697-1.397-.623 1.382a.359.359 0 01-.321.225.323.323 0 01-.167-.047c-.178-.107-.247-.36-.154-.564l.619-1.373a.198.198 0 01-.003-.029v-1.773l-.703-.652a.463.463 0 01-.055-.588c.125-.18.353-.208.509-.064l.689.64h.985zM16.341 7.317a2.16 2.16 0 110-4.318 2.16 2.16 0 010 4.318zm10.484 9.153c.098.061 1.21.298 1.174.6-.04.331-.474.478-.892.494-.245.01-.48-.02-.704-.085l-.23-.066c-.056-.016-.45.268-.45.268l-2.041-.768.399-.388c.291-.283.596-.562.836-.867a1.06 1.06 0 00.151-.264c.166-.418.548-.296.626-.258.193.093.262.238.243.396-.011.089-.025.177-.038.266-.005.026.007.041.043.054.06.023.117.05.174.076.324.153.42.363.71.542z"/><use fill-rule="evenodd" xlink:href="#axa"/></symbol><symbol viewBox="0 0 24 24" id="icon-plus" xmlns="http://www.w3.org/2000/svg"><defs><path id="aya" d="M0 1.99C0 .892.898 0 1.99 0h16.02C19.108 0 20 .898 20 1.99v16.02c0 1.099-.898 1.99-1.99 1.99H1.99A1.995 1.995 0 010 18.01V1.99z"/><mask id="ayb" width="20" height="20" x="0" y="0" fill="#fff"><use xlink:href="#aya"/></mask></defs><g fill="none" fill-rule="evenodd" stroke="#FFF" transform="translate(2 2)"><use stroke-dasharray="2" stroke-opacity=".399" stroke-width="2" mask="url(#ayb)" xlink:href="#aya"/><path d="M10 5v10m5-5H5" stroke-width="1.5"/></g></symbol><symbol viewBox="0 0 24 24" id="icon-rate" xmlns="http://www.w3.org/2000/svg"><path fill-rule="evenodd" d="M12 4l2.472 4.937L20 9.729l-4 3.844.944 5.427L12 16.438 7.056 19 8 13.573 4 9.729l5.528-.792L12 4zm0 2.234l-1.578 3.15a1 1 0 01-.752.543l-3.5.501 2.523 2.424a1 1 0 01.292.892l-.598 3.44 3.153-1.633a1 1 0 01.92 0l3.153 1.633-.598-3.44a1 1 0 01.292-.892l2.522-2.424-3.499-.501a1 1 0 01-.752-.542L12 6.234z"/></symbol><symbol viewBox="0 0 24 24" id="icon-search" xmlns="http://www.w3.org/2000/svg"><path fill-rule="evenodd" d="M14.774 17.689a7 7 0 111.632-1.196l3.569 3.568a1 1 0 11-1.414 1.414l-3.787-3.786zM11.5 17.5a6 6 0 100-12 6 6 0 000 12z"/></symbol><symbol viewBox="0 0 36 24" id="icon-service" xmlns="http://www.w3.org/2000/svg"><path id="bba" d="M26.514 12.6c.267 0 .486.216.486.48v.96c0 .264-.219.48-.486.48H23.6a.484.484 0 01-.486-.48v-.96c0-.264.219-.48.486-.48v-.96a.484.484 0 00-.486-.48h-1.357a3.47 3.47 0 01-3.419 2.8 3.484 3.484 0 01-3.08-1.84h-3.315v1.92c0 .53-.435.96-.972.96a.966.966 0 01-.971-.96v-7.2c0-.53.435-.96.971-.96.537 0 .972.43.972.96v1.44h3.756a3.483 3.483 0 011.537-1.021.72.72 0 01-.436-.659c0-.397.326-.72.729-.72h.242v-.96h-2.185a.725.725 0 01-.729-.72c0-.397.327-.72.729-.72h2.185c0-.265.162-.48.486-.48.324 0 .486.215.486.48h2.186c.402 0 .728.323.728.72 0 .397-.326.72-.728.72h-2.186v.96h.243c.402 0 .728.323.728.72 0 .27-.152.503-.375.626.84.249 1.545.804 1.986 1.534h4.704c.267 0 .485.216.485.48v3.36zM23 19.99c0-1.109 2-3.99 2-3.99s2 2.881 2 3.99c0 1.11-.895 2.01-2 2.01-1.104 0-2-.9-2-2.01z"/><use fill-rule="evenodd" xlink:href="#bba"/></symbol></svg>