<svg xmlns="http://www.w3.org/2000/svg" xmlns:xlink="http://www.w3.org/1999/xlink" width="36" height="24" viewBox="0 0 36 24">
    <path id="a" d="M16.846 9.92a3.098 3.098 0 0 0-2.117-.19c.7 0 1.352.235 1.906.641.843.618-.187 1.967-1.35 1.719-1.057-.186-1.541-1.861-1.965-2.36.006-.004.248-.135.89-.75 1.222-1.17 2.537-.678 2.9.64.052.193-.104.373-.264.3zm6.16-.952c.688.576.947.698.954.701-.452.465-.978 2.035-2.106 2.208a1.703 1.703 0 0 1-1.595-.564c-.41.362-.661.758-.816 1.14a.657.657 0 0 1-.593.427.655.655 0 0 1-.651-.682c.097-3.705.364-4.467.619-5.63a5.465 5.465 0 0 1 .966-2.112c-1.079.5-1.657 1.403-1.702 2.598-.01.275-.373.384-.525.157-.48-.715-.612-1.692-.156-2.495 1.031-1.818 3.634-1.12 4.23-1.716.113.908.467 2.347-.295 3.75-.443.878-1.248 1.38-1.852 1.401-.105.664-.195 1.557-.255 2.983a3.85 3.85 0 0 1 3-1.465 3.752 3.752 0 0 0-2.03.094c-.897.295.545-2.684 2.806-.795zm3.746 4.541c.314.221.33.701.046.962l-5.109 4.695a2.74 2.74 0 0 1-1.854.73h-6.41L12.07 22 8 17.79l3.652-3.719a3.852 3.852 0 0 1 2.811-1.191 3.93 3.93 0 0 1 1.836.448c.571.317 1.381.253 2.075.253h.934c.749 0 1.588.45 1.588 1.403 0 .899-.84 1.404-1.588 1.404h-2.492l.678.701h2.713l4.633-3.508c.37-.22 1.173-.59 1.912-.072z"/>
    <use fill-rule="evenodd" xlink:href="#a"/>
</svg>
