<svg xmlns="http://www.w3.org/2000/svg" width="131" height="38" viewBox="0 0 131 38">
    <g fill="#FFF" fill-rule="nonzero">
        <path d="M73.332 23.964c.526 0 1.027.068 1.502.206.475.138.865.304 1.17.5.305.196.575.392.81.588.235.196.404.362.507.497l.16.21-1.362 1.365-.115-.157a3.244 3.244 0 0 0-.328-.347 3.308 3.308 0 0 0-.556-.43 3.653 3.653 0 0 0-.789-.343 3.239 3.239 0 0 0-.999-.158c-.936 0-1.718.315-2.347.945-.628.63-.943 1.414-.943 2.352s.315 1.722.943 2.352c.629.63 1.411.945 2.347.945a3.6 3.6 0 0 0 1.044-.15c.333-.1.61-.22.828-.358.22-.137.412-.276.58-.416.168-.14.289-.261.363-.364l.112-.147 1.292 1.365c-.037.056-.094.13-.171.22a5.84 5.84 0 0 1-.51.483 5.395 5.395 0 0 1-.845.61c-.3.174-.694.334-1.18.479-.487.144-.991.217-1.513.217-1.527 0-2.816-.512-3.866-1.537-1.05-1.024-1.575-2.257-1.575-3.699 0-1.442.525-2.674 1.575-3.696 1.05-1.022 2.339-1.532 3.866-1.532zm7.01 5.232c0 .926.311 1.706.935 2.34a3.077 3.077 0 0 0 2.28.953c.897 0 1.657-.317 2.281-.952.624-.635.936-1.415.936-2.341 0-.927-.312-1.708-.936-2.345a3.072 3.072 0 0 0-2.28-.956c-.897 0-1.657.319-2.28.956-.625.637-.937 1.418-.937 2.345zm-2.222-.004c0-1.442.525-2.674 1.575-3.696 1.05-1.022 2.338-1.532 3.863-1.532s2.812.51 3.862 1.532c1.05 1.022 1.575 2.254 1.575 3.696 0 1.442-.525 2.675-1.575 3.7-1.05 1.024-2.337 1.536-3.862 1.536s-2.813-.512-3.863-1.537c-1.05-1.024-1.575-2.257-1.575-3.699zm17.742-5.228c.526 0 1.026.068 1.501.206.475.138.865.304 1.17.5.305.196.575.392.81.588.236.196.405.362.507.497l.16.21-1.361 1.365-.116-.157a3.244 3.244 0 0 0-.328-.347 3.308 3.308 0 0 0-.555-.43 3.653 3.653 0 0 0-.79-.343 3.239 3.239 0 0 0-.998-.158c-.936 0-1.719.315-2.347.945-.629.63-.943 1.414-.943 2.352s.314 1.722.943 2.352c.628.63 1.41.945 2.347.945a3.6 3.6 0 0 0 1.044-.15c.333-.1.609-.22.828-.358.218-.137.412-.276.58-.416.167-.14.288-.261.363-.364l.111-.147 1.292 1.365c-.037.056-.094.13-.17.22a5.84 5.84 0 0 1-.51.483 5.395 5.395 0 0 1-.846.61c-.3.174-.694.334-1.18.479-.487.144-.99.217-1.512.217-1.528 0-2.817-.512-3.867-1.537-1.05-1.024-1.575-2.257-1.575-3.699 0-1.442.525-2.674 1.575-3.696 1.05-1.022 2.34-1.532 3.867-1.532zm8.081 8.315h5.364v1.932h-7.515V24.173h7.369v1.94h-5.218v2.008h4.072v1.932h-4.072v2.226zm6.07 0h.573c.037-.037.092-.097.164-.179.072-.081.199-.268.38-.56.182-.291.342-.612.479-.962.137-.35.263-.824.377-1.42a10.1 10.1 0 0 0 .171-1.898v-3.087h6.936v8.106h1.223v4.01h-2.152v-2.078h-6.007v2.079h-2.144v-4.011zm4.289-5.019c0 .668-.055 1.297-.165 1.89-.109.593-.24 1.071-.39 1.435a8.178 8.178 0 0 1-.458.945 3.827 3.827 0 0 1-.384.574l-.175.175h4.219v-6.167h-2.647v1.148zm16.589 6.95h-2.145v-6.376l-4.931 6.377h-1.865V24.173h2.151v6.384l4.932-6.384h1.858v10.038zM73.828 12.62l3.465-4.374h1.9v10.037h-2.145v-6.691l-3.22 4.108-3.213-4.08v6.663h-2.151V8.246h1.935l3.43 4.375zm18.88-4.374v10.037h-2.144V8.246h2.144zm-6.866 10.037h-4.08V8.246h2.152v3.297h1.928c1.03 0 1.883.323 2.56.97.678.645 1.016 1.447 1.016 2.403 0 .957-.338 1.757-1.016 2.401-.677.644-1.53.966-2.56.966zm-1.928-1.932h1.858c.429 0 .786-.138 1.072-.416.287-.278.43-.617.43-1.019 0-.4-.143-.74-.43-1.018-.286-.278-.643-.416-1.072-.416h-1.858v2.87zM0 37.49l9.98.025.068-26.251-9.98-.026L0 37.49M12.475 37.522l9.98.025.038-14.952-4.996 2.488-4.983-2.514zM24.95 37.554l9.98.026.067-26.251-9.98-.026-.068 26.251M49.9 37.594l9.98.026.067-26.227-9.98-.026-.067 26.227M37.424 37.587c5.512.014 9.991-4.452 10.005-9.976.015-5.523-4.442-10.012-9.953-10.027l-.052 20.003zM.084 4.988A4.995 4.995 0 0 0 5.06 10a4.995 4.995 0 0 0 5.003-4.988A4.996 4.996 0 0 0 5.087 0 4.996 4.996 0 0 0 .084 4.988zM17.532 11.331a4.995 4.995 0 0 0-5.002 4.987 4.995 4.995 0 0 0 4.977 5.014 4.995 4.995 0 0 0 5.002-4.988 4.995 4.995 0 0 0-4.977-5.013M30.036.064a4.996 4.996 0 0 0-5.003 4.988 4.995 4.995 0 0 0 4.977 5.013 4.995 4.995 0 0 0 5.003-4.987A4.996 4.996 0 0 0 30.036.064M42.495 6.347a4.996 4.996 0 0 0-5.003 4.988 4.995 4.995 0 0 0 4.977 5.013 4.995 4.995 0 0 0 5.002-4.987 4.996 4.996 0 0 0-4.976-5.014M54.96 10.13a4.995 4.995 0 0 0 5.002-4.987A4.995 4.995 0 0 0 54.986.129a4.995 4.995 0 0 0-5.003 4.988 4.995 4.995 0 0 0 4.976 5.013"/>
    </g>
</svg>
