<svg xmlns="http://www.w3.org/2000/svg" xmlns:xlink="http://www.w3.org/1999/xlink" width="36" height="24" viewBox="0 0 36 24">
    <path id="a" d="M23.354 17.55c-1.274-1.174-2.847-3.128-4.097-4.408a.721.721 0 0 1-.41.135.72.72 0 0 1-.416-.133c-1.4-.98-2.082-1.75-2.675-2.517l-.634 3.12a1.453 1.453 0 0 1-.117.339l1.55 2.583c.052.086.091.18.116.279l.98 3.783c.135.539-.168 1.091-.679 1.234a.893.893 0 0 1-.247.035.967.967 0 0 1-.924-.75l-.941-3.633-1.137-1.895-.113 1.821a1.064 1.064 0 0 1-.063.298l-1.288 3.514a.96.96 0 0 1-.893.645.917.917 0 0 1-.345-.068c-.493-.2-.738-.786-.548-1.305l1.237-3.37.194-3.128a1.484 1.484 0 0 1-.258-1.167l.618-3.039c-.555.473-1.195 1.146-1.926 2.107a.725.725 0 0 1-1.057.122.822.822 0 0 1-.116-1.114c1.702-2.237 3.245-3.443 4.711-3.686.03-.006.059-.01.089-.014.028-.004.056-.01.084-.013.017-.002.033 0 .05 0 .023-.002.047-.006.07-.007h.005s.237.002.44.043c.214.042.4.15.4.15.175.09.344.216.496.364a.755.755 0 0 1 .117.11c.394.45.691.845.978 1.226.641.852 1.195 1.588 2.657 2.612.32.225.421.661.254 1.014 1.356 1.388 2.935 3.26 4.166 4.388l-.308.324h1.213l1.686 1.116v1.322l-.003.03v1.565c0 .23-.162.418-.362.418-.2 0-.362-.187-.362-.418v-1.428h-2.252l.608 1.22c.1.2.04.455-.133.57a.324.324 0 0 1-.18.056.356.356 0 0 1-.314-.21l-.697-1.397-.623 1.382a.359.359 0 0 1-.321.225.323.323 0 0 1-.167-.047c-.178-.107-.247-.36-.154-.564l.619-1.373a.198.198 0 0 1-.003-.029v-1.773l-.703-.652a.463.463 0 0 1-.055-.588c.125-.18.353-.208.509-.064l.689.64h.985zM16.341 7.317a2.16 2.16 0 1 1 0-4.318 2.16 2.16 0 0 1 0 4.318zm10.484 9.153c.098.061 1.21.298 1.174.6-.04.331-.474.478-.892.494-.245.01-.48-.02-.704-.085l-.23-.066c-.056-.016-.45.268-.45.268l-2.041-.768.399-.388c.291-.283.596-.562.836-.867a1.06 1.06 0 0 0 .151-.264c.166-.418.548-.296.626-.258.193.093.262.238.243.396-.011.089-.025.177-.038.266-.005.026.007.041.043.054.06.023.117.05.174.076.324.153.42.363.71.542z"/>
    <use  fill-rule="evenodd" xlink:href="#a"/>
</svg>
