<svg xmlns="http://www.w3.org/2000/svg" width="24" height="24" viewBox="0 0 24 24">
    <path fill-rule="evenodd" d="M20.55 13.665h-2.017c-.497 0-1.066-.357-1.27-.797l-1.478-3.176c-.102-.22-.226-.206-.275.03L13.286 20.29c-.2.946-.524.947-.724 0L9.39 5.35c-.05-.236-.141-.238-.204-.005l-1.993 7.473c-.125.467-.629.846-1.126.847H3.45a.444.444 0 0 1-.45-.437c0-.242.202-.438.45-.438H5.7a.623.623 0 0 0 .57-.42l2.28-7.992c.53-1.86 1.275-1.834 1.662.06l2.6 12.732c.048.237.127.237.176 0l1.72-8.378c.29-1.42 1.026-1.503 1.641-.183l1.765 3.783a.76.76 0 0 0 .636.398h1.8c.248 0 .45.195.45.437a.444.444 0 0 1-.45.438z"/>
</svg>
