<svg xmlns="http://www.w3.org/2000/svg" xmlns:xlink="http://www.w3.org/1999/xlink" width="36" height="24" viewBox="0 0 36 24">
    <path id="a" d="M18.498 14.281L25.995 12v3.769c0 .013.005.027.005.041 0 1.762-3.358 3.19-7.5 3.19-4.142 0-7.5-1.428-7.5-3.19V12l7.498 2.281zM6 9.761L18 5l12 4.762-4.84 1.785L18 13.82l-7.16-2.273-.583-.214 1.261-.423.12-.304L9.947 11v.437l-.302 5.252c-1.137.7-2.273 0-2.273 0-.268-1.92 1.553-5.848 1.553-5.848l.118-.358.806-.198-.134-.143-.94.082-.217.481L6 9.762z"/>
    <use fill-rule="evenodd" xlink:href="#a"/>
</svg>
