<svg xmlns="http://www.w3.org/2000/svg" width="24" height="24" viewBox="0 0 24 24">
  <path fill-rule="evenodd" d="M19.2,20 L4.8,20 C3.80595,20 3,19.2164375 3,18.25 L3,7.75 C3,6.7835625 3.80595,6 4.8,6 L19.2,6 C20.19405,6 21,6.7835625 21,7.75 L21,18.25 C21,19.2164375 20.19405,20 19.2,20 Z M4.84210526,19 L19.1578947,19 C19.6522368,19 20.0526316,18.6167218 20.0526316,18.1444682 L20.0526316,8 L13.2656053,14.4896364 C12.5668158,15.1582345 11.4336316,15.1582345 10.7348421,14.4896364 L3.94736842,8 L3.94736842,18.1444682 C3.94736842,18.6167218 4.34821053,19 4.84210526,19 Z M5.02676474,6.85686578 C4.83182402,6.85686578 4.65057164,6.90948866 4.5,7 L11.3062601,13.7534092 C11.674901,14.0821969 12.2724674,14.0821969 12.6411084,13.7534092 L19.5,7 C19.3494284,6.90948866 19.168176,6.85686578 18.9732353,6.85686578 L5.02676474,6.85686578 Z"/>
</svg>
