<svg xmlns="http://www.w3.org/2000/svg" xmlns:xlink="http://www.w3.org/1999/xlink" width="36" height="24" viewBox="0 0 36 24">
    <path id="a" d="M26.514 12.6c.267 0 .486.216.486.48v.96c0 .264-.219.48-.486.48H23.6a.484.484 0 0 1-.486-.48v-.96c0-.264.219-.48.486-.48v-.96a.484.484 0 0 0-.486-.48h-1.357a3.47 3.47 0 0 1-3.419 2.8 3.484 3.484 0 0 1-3.08-1.84h-3.315v1.92c0 .53-.435.96-.972.96a.966.966 0 0 1-.971-.96v-7.2c0-.53.435-.96.971-.96.537 0 .972.43.972.96v1.44h3.756a3.483 3.483 0 0 1 1.537-1.021.72.72 0 0 1-.436-.659c0-.397.326-.72.729-.72h.242v-.96h-2.185a.725.725 0 0 1-.729-.72c0-.397.327-.72.729-.72h2.185c0-.265.162-.48.486-.48.324 0 .486.215.486.48h2.186c.402 0 .728.323.728.72 0 .397-.326.72-.728.72h-2.186v.96h.243c.402 0 .728.323.728.72 0 .27-.152.503-.375.626.84.249 1.545.804 1.986 1.534h4.704c.267 0 .485.216.485.48v3.36zM23 19.99c0-1.109 2-3.99 2-3.99s2 2.881 2 3.99c0 1.11-.895 2.01-2 2.01-1.104 0-2-.9-2-2.01z"/>
    <use fill-rule="evenodd" xlink:href="#a"/>
</svg>
