<svg xmlns="http://www.w3.org/2000/svg" xmlns:xlink="http://www.w3.org/1999/xlink" width="36" height="24" viewBox="0 0 36 24">
    <path id="a" d="M17.5 10a.5.5 0 1 1 0-1 .5.5 0 0 1 0 1zm4.93 7.451c1.011.429 2.57.51 2.57 1.945 0 .874-.717 1.755-1.562 1.582-1.046-.213-1.55-.569-3.12-1.31-.271-.11-.566-.099-.692-.078-.5.084-1.05.115-1.626.115-.516 0-1.01-.025-1.467-.09-.152-.022-.397-.102-.743.058-1.61.738-2.167 1.094-3.228 1.305-.846.169-1.562-.708-1.562-1.582 0-1.436 1.454-1.468 2.468-1.891.363-.227.338-.474.338-.65v-2.402c-.817-.166-2.614-.223-2.614-1.813 0-.808.651-1.105 1.445-1.022.63.066.906.434 1.997.092.299-.093.49-.425.291-.681-.535-.693-.81-1.571-.856-2.525-.018-.377-.13-.465-.202-.494a2.076 2.076 0 0 1-1.281-1.934c0-1.147.901-2.076 2.013-2.076.554 0 1.055.23 1.419.604.082.084.196.258.363.207.528-.273.987-.36 1.619-.36.588 0 1.007.071 1.508.31.141.062.199-.017.231-.055.37-.433.91-.706 1.513-.706 1.112 0 2.013.93 2.013 2.076 0 .846-.483 1.595-1.197 1.897-.139.059-.137.374-.137.531 0 .962-.314 1.855-.869 2.54-.217.268.163.607.298.658 1.073.409 1.37-.019 2.003-.084.794-.082 1.445.214 1.445 1.022 0 1.634-1.798 1.65-2.614 1.819v2.396c0 .171-.043.445.236.596zm-2.528-7.112c0-.855-.873-1.549-1.95-1.549-1.076 0-1.95.694-1.95 1.55 0 .855.874 1.548 1.95 1.548 1.077 0 1.95-.693 1.95-1.549zm-4.755-2.555a.7.7 0 0 0 .696.705.7.7 0 0 0 .696-.705.7.7 0 0 0-.696-.704.7.7 0 0 0-.696.704zm5.208 8.72v-1.122c0-1.317-1.054-2.385-2.355-2.385-1.3 0-2.355 1.068-2.355 2.385v1.121c0 1.318 1.054 1.909 2.355 1.909 1.3 0 2.355-.591 2.355-1.909zm-.539-8.015a.7.7 0 0 0 .696-.705.7.7 0 0 0-.696-.704.7.7 0 0 0-.696.704.7.7 0 0 0 .696.705z"/>
    <use fill-rule="evenodd" xlink:href="#a"/>
</svg>
