<svg xmlns="http://www.w3.org/2000/svg" width="24" height="24" viewBox="0 0 24 24">
    <g fill="none" fill-rule="evenodd">
        <path fill="#8B9398" d="M18.85 17.8c.15.3.225.525.075.825a.788.788 0 0 1-.675.375H4.75c-.3 0-.525-.15-.6-.45a.681.681 0 0 1 0-.75S5.5 15.7 5.5 13v-3c0-3.3 2.7-6 6-6s6 2.7 6 6v3c0 2.7 1.35 4.8 1.35 4.8zm-9.9 2.7h5.1c-.525.9-1.5 1.5-2.55 1.5-1.05 0-2.025-.6-2.55-1.5z"/>
        <rect width="8" height="8" fill="#E34257" rx="4" transform="translate(13 3)"/>
    </g>
</svg>
