<svg xmlns="http://www.w3.org/2000/svg" xmlns:xlink="http://www.w3.org/1999/xlink" width="36" height="24" viewBox="0 0 36 24">
    <path id="a" d="M24.611 10.125h-1.167V8.542C23.444 5.486 21.002 3 18 3s-5.444 2.486-5.444 5.542v1.583h-1.167a.392.392 0 0 0-.389.396v9.896c0 .873.698 1.583 1.556 1.583h10.888c.858 0 1.556-.71 1.556-1.583V10.52a.392.392 0 0 0-.389-.396zm-5.447 8.269a.401.401 0 0 1-.096.308.386.386 0 0 1-.29.131h-1.556a.386.386 0 0 1-.29-.131.401.401 0 0 1-.096-.308l.245-2.246a1.575 1.575 0 0 1-.637-1.273c0-.873.698-1.583 1.556-1.583.858 0 1.556.71 1.556 1.583 0 .512-.239.978-.637 1.273l.245 2.246zm1.947-8.269H14.89V8.542c0-1.746 1.396-3.167 3.111-3.167 1.715 0 3.111 1.42 3.111 3.167v1.583z"/>
    <use fill-rule="evenodd" xlink:href="#a"/>
</svg>
