<svg xmlns="http://www.w3.org/2000/svg" width="104" height="30" viewBox="0 0 104 30">
    <g fill="none" fill-rule="nonzero">
        <path fill="#272661" d="M58.218 18.919c.418 0 .815.054 1.192.163.377.108.687.24.929.395.242.154.457.31.643.464.187.155.321.285.402.392l.128.166-1.081 1.078a9.778 9.778 0 0 1-.092-.125 2.567 2.567 0 0 0-.26-.273 2.624 2.624 0 0 0-.441-.34 2.908 2.908 0 0 0-.627-.271 2.584 2.584 0 0 0-.793-.124c-.743 0-1.364.248-1.863.746-.5.497-.749 1.116-.749 1.856s.25 1.36.749 1.857c.499.497 1.12.746 1.863.746.288 0 .565-.04.829-.119a2.71 2.71 0 0 0 .657-.282 4.24 4.24 0 0 0 .46-.328c.133-.11.23-.207.289-.288l.088-.116 1.026 1.078c-.03.044-.075.102-.136.174a4.626 4.626 0 0 1-.404.381 4.282 4.282 0 0 1-.671.481c-.239.138-.551.264-.937.378a4.213 4.213 0 0 1-1.201.172c-1.213 0-2.236-.405-3.07-1.213-.833-.809-1.25-1.782-1.25-2.92 0-1.139.417-2.111 1.25-2.918.834-.807 1.857-1.21 3.07-1.21zm5.564 4.13c0 .731.248 1.348.743 1.849a2.45 2.45 0 0 0 1.81.751 2.45 2.45 0 0 0 1.811-.751c.496-.501.743-1.118.743-1.849 0-.731-.247-1.348-.743-1.851a2.445 2.445 0 0 0-1.81-.754c-.712 0-1.315.251-1.81.754-.496.503-.744 1.12-.744 1.851zm-1.763-.003c0-1.138.417-2.11 1.25-2.917.834-.807 1.856-1.21 3.067-1.21 1.21 0 2.233.403 3.066 1.21.834.807 1.25 1.78 1.25 2.917 0 1.139-.416 2.112-1.25 2.92-.833.81-1.855 1.214-3.066 1.214-1.21 0-2.233-.405-3.067-1.213-.833-.809-1.25-1.782-1.25-2.92zm14.085-4.127c.418 0 .815.054 1.192.163.377.108.687.24.929.395.242.154.456.31.643.464.187.155.32.285.402.392l.128.166-1.082 1.078a9.78 9.78 0 0 1-.091-.125 2.567 2.567 0 0 0-.26-.273 2.624 2.624 0 0 0-.442-.34 2.908 2.908 0 0 0-.626-.271 2.584 2.584 0 0 0-.793-.124c-.743 0-1.364.248-1.863.746-.5.497-.749 1.116-.749 1.856s.25 1.36.749 1.857c.499.497 1.12.746 1.863.746.288 0 .565-.04.829-.119a2.71 2.71 0 0 0 .657-.282 4.24 4.24 0 0 0 .46-.328c.133-.11.23-.207.289-.288l.088-.116 1.026 1.078c-.03.044-.075.102-.136.174a4.626 4.626 0 0 1-.404.381 4.282 4.282 0 0 1-.671.481c-.239.138-.551.264-.938.378a4.213 4.213 0 0 1-1.2.172c-1.213 0-2.236-.405-3.07-1.213-.833-.809-1.25-1.782-1.25-2.92 0-1.139.417-2.111 1.25-2.918.834-.807 1.857-1.21 3.07-1.21zm6.416 6.564h4.258v1.525h-5.966v-7.924h5.85v1.531H82.52v1.586h3.233v1.525H82.52v1.757zm4.818 0h.455c.03-.03.073-.076.13-.14.058-.065.159-.212.303-.443.144-.23.27-.483.38-.76.109-.276.208-.65.299-1.121.09-.472.136-.97.136-1.498v-2.437h5.506v6.4h.97v3.166H93.81v-1.642h-4.77v1.642h-1.702v-3.167zm3.405-3.962c0 .527-.043 1.024-.13 1.492-.087.468-.19.846-.31 1.133-.12.287-.242.536-.364.746a3.02 3.02 0 0 1-.305.453l-.138.138h3.349v-4.868h-2.102v.906zm13.17 5.487h-1.702v-5.034l-3.915 5.034h-1.48v-7.924h1.707v5.04l3.915-5.04h1.475v7.924z"/>
        <path fill="#2AA7DF" d="M58.612 9.964l2.75-3.454h1.508v7.924h-1.702V9.151l-2.556 3.244-2.551-3.222v5.261h-1.708V6.51h1.536l2.723 3.454zM73.6 6.51v7.924h-1.703V6.51h1.703zm-5.452 7.924h-3.238V6.51h1.708v2.603h1.53c.817 0 1.495.255 2.033.765.538.51.807 1.143.807 1.898 0 .755-.27 1.387-.807 1.896-.538.508-1.216.762-2.033.762zm-1.53-1.525h1.475c.34 0 .624-.11.851-.329.228-.219.341-.487.341-.804 0-.317-.113-.585-.34-.804a1.178 1.178 0 0 0-.852-.329h-1.475v2.266zM0 29.597l7.923.02.054-20.725-7.923-.02L0 29.597"/>
        <path fill="#2175BB" d="M9.904 29.622l7.922.02.031-11.804-3.966 1.964-3.957-1.984z"/>
        <path fill="#293C8F" d="M19.807 29.648l7.923.02.054-20.724-7.923-.02-.054 20.724"/>
        <path fill="#67318E" d="M39.615 29.68l7.923.02.054-20.705-7.923-.021-.054 20.705"/>
        <path fill="#272661" d="M29.71 29.674c4.376.01 7.933-3.515 7.944-7.875.011-4.36-3.527-7.905-7.902-7.917l-.041 15.792z"/>
        <path fill="#2AA7DF" d="M.067 3.938a3.954 3.954 0 0 0 3.951 3.957 3.954 3.954 0 0 0 3.971-3.937A3.955 3.955 0 0 0 4.04 0 3.955 3.955 0 0 0 .066 3.938z"/>
        <path fill="#2175BB" d="M13.919 8.946a3.955 3.955 0 0 0-3.972 3.937 3.954 3.954 0 0 0 3.951 3.958 3.954 3.954 0 0 0 3.972-3.938 3.955 3.955 0 0 0-3.951-3.957"/>
        <path fill="#293C8F" d="M23.845.05a3.955 3.955 0 0 0-3.971 3.939 3.954 3.954 0 0 0 3.95 3.957 3.954 3.954 0 0 0 3.973-3.937A3.955 3.955 0 0 0 23.845.051"/>
        <path fill="#272661" d="M33.736 5.01a3.955 3.955 0 0 0-3.972 3.939 3.955 3.955 0 0 0 3.952 3.957 3.955 3.955 0 0 0 3.971-3.937 3.955 3.955 0 0 0-3.95-3.958"/>
        <path fill="#67318E" d="M43.632 7.997a3.954 3.954 0 0 0 3.971-3.937 3.955 3.955 0 0 0-3.95-3.958A3.955 3.955 0 0 0 39.68 4.04a3.954 3.954 0 0 0 3.951 3.957"/>
    </g>
</svg>
