<svg xmlns="http://www.w3.org/2000/svg" width="16" height="16" viewBox="0 0 16 16">
    <path fill="#8B9398" fill-rule="evenodd" d="M3.5 12.5v-5h-1v5h1zm-1.5 1a.5.5 0 0 1-.5-.5V7a.5.5 0 0 1 .5-.5h1.815L6.035.818A.5.5 0 0 1 6.5.5h.834c.732 0 1.333.577 1.333 1.3v3.5h3.666c.673 0 1.308.303 1.72.821a2.05 2.05 0 0 1 .367 1.846l-1.158 4c-.263.91-1.118 1.533-2.086 1.533H2zm2.5-6.006V12.5h6.676c.529 0 .988-.335 1.125-.811l1.158-4a1.05 1.05 0 0 0-.19-.947 1.192 1.192 0 0 0-.936-.442H8.167a.5.5 0 0 1-.5-.5v-4c0-.161-.145-.3-.333-.3h-.492L4.5 7.494z"/>
</svg>
