<svg xmlns="http://www.w3.org/2000/svg" xmlns:xlink="http://www.w3.org/1999/xlink" width="36" height="24" viewBox="0 0 36 24">
    <path id="a" d="M9.773 8.619C10.29 8.206 10.906 8 11.625 8H12v12h-.375c-.719 0-1.336-.206-1.852-.619C9.258 18.97 9 18.475 9 17.9v-7.8c0-.575.258-1.069.773-1.481zM21.53 5.937V7.5H23V20H13V7.5h1.47V5.937c0-.26.086-.481.258-.664A.826.826 0 0 1 15.353 5h5.294c.245 0 .454.091.625.273a.933.933 0 0 1 .257.664zm-5.882.313V7.5h4.706V6.25h-4.706zm5.882 8.437v-1.875a.315.315 0 0 0-.082-.224.278.278 0 0 0-.212-.088h-2.058v-2.188a.315.315 0 0 0-.083-.224.277.277 0 0 0-.212-.088h-1.764a.277.277 0 0 0-.212.088.314.314 0 0 0-.082.224V12.5h-2.06a.277.277 0 0 0-.21.088.314.314 0 0 0-.083.225v1.874c0 .092.027.166.082.225a.278.278 0 0 0 .212.088h2.059v2.188c0 .09.027.165.082.224a.278.278 0 0 0 .212.088h1.765c.085 0 .156-.03.21-.088a.315.315 0 0 0 .084-.224V15h2.059c.085 0 .156-.03.21-.088a.315.315 0 0 0 .083-.225zm4.698-6.068c.515.412.773.906.773 1.481v7.8c0 .575-.258 1.069-.773 1.481-.516.413-1.133.619-1.852.619H24V8h.375c.719 0 1.336.206 1.852.619z"/>
    <use fill-rule="evenodd" xlink:href="#a"/>
</svg>
