<svg xmlns="http://www.w3.org/2000/svg" xmlns:xlink="http://www.w3.org/1999/xlink" width="48" height="70" viewBox="0 0 48 70">
    <defs>
        <path id="a" d="M23.821 41.215a23.913 23.913 0 0 1-16.776-7.08C-2.331 24.713-2.348 9.446 6.994 0L48 41.215H23.821z"/>
        <path id="c" d="M23.821 41.215a23.913 23.913 0 0 1-16.776-7.08C-2.331 24.713-2.348 9.446 6.994 0L48 41.215H23.821z"/>
        <path id="e" d="M23.821 41.215a23.913 23.913 0 0 1-16.776-7.08C-2.331 24.713-2.348 9.446 6.994 0L48 41.215H23.821z"/>
        <path id="g" d="M23.821 41.215a23.913 23.913 0 0 1-16.776-7.08C-2.331 24.713-2.348 9.446 6.994 0L48 41.215H23.821z"/>
    </defs>
    <g fill="none" fill-rule="evenodd">
        <path fill="#272661" fill-rule="nonzero" d="M12.973 70H5.189l6.315-2.966V58.88h1.469zM21.405 70H14.27l5.79-2.966V58.88h1.345z"/>
        <g fill-rule="nonzero" transform="translate(2.595)">
            <path fill="#272661" d="M.074 15.786l4.222-4.256 4.221 4.256-4.221 4.256z"/>
            <path fill="#2AA7DF" d="M16.54 0c6.628 0 12 5.419 12 12.103v35.981c0 6.684-5.372 12.103-12 12.103-6.627 0-12-5.419-12-12.103V12.103C4.54 5.419 9.914 0 16.54 0z"/>
            <ellipse cx="16.541" cy="12.757" fill="#FFF" rx="4.216" ry="4.252"/>
            <ellipse cx="16.541" cy="12.757" fill="#000" rx="1.622" ry="1.636"/>
        </g>
        <path fill="#272661" fill-rule="nonzero" d="M23.821 62.804a23.913 23.913 0 0 1-16.776-7.08c-9.376-9.423-9.393-24.69-.051-34.135L48 62.804H23.821z"/>
        <g transform="translate(0 21.589)">
            <mask id="b" fill="#fff">
                <use xlink:href="#a"/>
            </mask>
            <path fill="#67318E" fill-rule="nonzero" d="M40.865 34.186c-9.364 9.389-24.502 9.372-33.845-.051S-2.34 9.445 6.97 0l33.895 34.186z" mask="url(#b)"/>
        </g>
        <g transform="translate(0 21.589)">
            <mask id="d" fill="#fff">
                <use xlink:href="#c"/>
            </mask>
            <path fill="#2175BB" fill-rule="nonzero" d="M22.703 16.022L5.507 33.364C.76 28.575.76 20.811 5.507 16.022a12.086 12.086 0 0 1 17.196 0z" mask="url(#d)"/>
        </g>
        <g transform="translate(0 21.589)">
            <mask id="f" fill="#fff">
                <use xlink:href="#e"/>
            </mask>
            <path fill="#2175BB" fill-rule="nonzero" d="M26.8 17.664l3.686 3.718-19.664 19.833-3.687-3.719z" mask="url(#f)"/>
        </g>
        <g transform="translate(0 21.589)">
            <mask id="h" fill="#fff">
                <use xlink:href="#g"/>
            </mask>
            <path fill="#2175BB" fill-rule="nonzero" d="M35.232 22.243l3.687 3.719-19.664 19.832-3.687-3.718z" mask="url(#h)"/>
        </g>
    </g>
</svg>
